<svg width="41" height="38" viewBox="0 0 41 38" fill="none" xmlns="http://www.w3.org/2000/svg">
<path d="M40.7128 18.5212V29.4985C40.7128 34.1696 36.9354 37.9533 32.2718 37.9533H16.9753C15.0633 37.9533 13.5709 36.4118 13.5709 34.5433C13.5709 32.6282 15.1099 31.1334 16.9753 31.1334H30.453C32.3651 31.1334 33.8574 29.5919 33.8574 27.7234V18.3344C33.8574 17.26 33.3444 16.2323 32.505 15.5784L23.2711 8.61832C21.5456 7.31039 19.1206 7.31039 17.3951 8.61832L8.30113 15.485C7.36841 16.1856 6.80879 17.3067 6.80879 18.5212V34.59C6.80879 36.5052 5.26981 38 3.40439 38C1.49234 38 0 36.4585 0 34.59V18.8482C0 15.2981 1.67888 11.9816 4.47701 9.87954L6.85542 8.10449L14.6902 2.21882L15.5296 1.61156C18.421 -0.537185 22.3851 -0.537185 25.2765 1.61156L26.1159 2.21882L33.9507 8.1512L36.5156 10.1131C39.1272 12.0283 40.7128 15.2047 40.7128 18.5212Z" fill="#F4683F"/>
</svg>
